<svg width="48" height="29" viewBox="0 0 48 29" fill="none" xmlns="http://www.w3.org/2000/svg">
<rect x="5.4541" y="2.18182" width="37.0909" height="24" rx="2" fill="#DAE4EA"/>
<path d="M20.7528 13.382C21.2857 13.782 21.2857 14.5816 20.7528 14.9816L7.05501 25.2625C6.39581 25.7573 5.45472 25.287 5.45472 24.4627V3.9009C5.45472 3.07669 6.39582 2.60635 7.05501 3.10111L20.7528 13.382Z" fill="#C4CED6"/>
<path d="M27.2472 14.9816C26.7143 14.5816 26.7143 13.782 27.2472 13.382L40.945 3.1011C41.6042 2.60634 42.5453 3.07668 42.5453 3.90089V24.4627C42.5453 25.2869 41.6042 25.7573 40.945 25.2625L27.2472 14.9816Z" fill="#C4CED6"/>
<path d="M30.2503 11.161C29.2755 6.72885 23.6889 8.40829 23.0008 10.4999C22.7141 8.2589 17.9133 6.56574 16.2503 10.4999C14.4153 14.7826 22.2916 19.414 22.7503 20.161C23.3237 19.7128 31.3398 16.0911 30.2503 11.161Z" fill="#FF5A79"/>
</svg>
